# xmcd CD database file
#
# Track frame offsets:
#	150
#	16199
#	31239
#	48608
#	63667
#	80464
#	96929
#	114232
#	131116
#	147952
#	166232
#	180757
#	193982
#	207744
#	223362
#	245224
#	261246
#
# Disc length: 3655 seconds
#
# Revision: 1
# Processed by: cddbd v1.5.2PL0 Copyright (c) Steve Scherf et al.
# Submitted via: CDex 1.70beta2
#
DISCID=050e4511
DTITLE=Jinx Jazz Band - Jazz Me Blues
DYEAR=2006
DGENRE=Jazz
TTITLE0=Five Feet Two Eyes of Blue
TTITLE1=Jazz Me Blues
TTITLE2=Lazy River
TTITLE3=Fidgety Feet
TTITLE4=I Must Have That Man
TTITLE5=You Always Hurt the One You Love
TTITLE6=Indiana
TTITLE7=Honeysuckle Rose
TTITLE8=Who's Sorry Now?
TTITLE9=Sweet Sue (Just You)
TTITLE10=Doctor Jazz
TTITLE11=Struttin' with Some Barbecue
TTITLE12=I'm Making Believe
TTITLE13=Some of these Days
TTITLE14=Tin Roof Blues
TTITLE15=Royal Garden Blues
TTITLE16=I See Yes, Yes, Yes in Your Eyes
EXTD=YEAR: 2006
EXTT0=
EXTT1=
EXTT2=
EXTT3=
EXTT4=
EXTT5=
EXTT6=
EXTT7=
EXTT8=
EXTT9=
EXTT10=
EXTT11=
EXTT12=
EXTT13=
EXTT14=
EXTT15=
EXTT16=
PLAYORDER=
